<?xml version="1.0" encoding="utf-8"?>
<!-- Generator: Adobe Illustrator 25.4.0, SVG Export Plug-In . SVG Version: 6.00 Build 0)  -->
<svg version="1.1" id="Layer_1" xmlns="http://www.w3.org/2000/svg" xmlns:xlink="http://www.w3.org/1999/xlink" x="0px" y="0px"
	 viewBox="0 0 464.5 433.8" style="enable-background:new 0 0 464.5 433.8;" xml:space="preserve">
<style type="text/css">
	.st0{fill:#EBEBEB;}
	.st1{fill:#F5F5F5;}
	.st2{fill:#F0F0F0;}
	.st3{fill:#E6E6E6;}
	.st4{fill:#99A9DD;}
	.st5{opacity:0.3;}
	.st6{opacity:0.7;fill:#FFFFFF;enable-background:new    ;}
	.st7{opacity:0.2;fill:#99A9DD;enable-background:new    ;}
	.st8{opacity:0.3;fill:#FFFFFF;enable-background:new    ;}
	.st9{opacity:0.4;fill:#99A9DD;enable-background:new    ;}
	.st10{opacity:0.2;enable-background:new    ;}
	.st11{opacity:0.2;fill:#FFFFFF;enable-background:new    ;}
	.st12{opacity:0.3;fill:#99A9DD;enable-background:new    ;}
	.st13{opacity:0.8;fill:#FFFFFF;enable-background:new    ;}
	.st14{fill:#1A2238;}
	.st15{fill:#FFFFFF;}
	.st16{opacity:0.5;fill:#FFFFFF;enable-background:new    ;}
	.st17{opacity:0.6;fill:#99A9DD;enable-background:new    ;}
	.st18{opacity:0.5;fill:#99A9DD;enable-background:new    ;}
	.st19{opacity:0.6;fill:#FFFFFF;enable-background:new    ;}
</style>
<g id="freepik--background-complete--inject-15">
	<path class="st0" d="M220.6,411.9H27.5c-3.2,0-5.7-2.6-5.7-5.7V27.6c0-3.1,2.6-5.7,5.7-5.7h193.1c3.2,0,5.7,2.6,5.7,5.7l0,0v378.6
		C226.3,409.4,223.8,411.9,220.6,411.9z M27.5,22.1c-3,0-5.5,2.4-5.5,5.5v378.7c0,3,2.4,5.5,5.5,5.5h193.1c3,0,5.5-2.4,5.5-5.5V27.6
		c0-3-2.4-5.5-5.5-5.5H27.5z"/>
	<path class="st0" d="M436.9,411.9H243.8c-3.2,0-5.7-2.6-5.7-5.7V27.6c0-3.1,2.6-5.7,5.7-5.7h193.1c3.2,0,5.7,2.6,5.7,5.7v378.6
		C442.6,409.4,440.1,411.9,436.9,411.9z M243.8,22.1c-3,0-5.5,2.4-5.5,5.5v378.7c0,3,2.4,5.5,5.5,5.5h193.1c3,0,5.5-2.4,5.5-5.5
		V27.6c0-3-2.4-5.5-5.5-5.5H243.8z"/>
	<polygon class="st0" points="95.3,135.1 96.9,138.4 100.5,139 97.9,141.5 98.5,145.1 95.3,143.4 92,145.1 92.6,141.5 90,139 
		93.6,138.4 	"/>
	<polygon class="st1" points="418.9,289.4 420.5,292.7 424.1,293.2 421.5,295.7 422.1,299.3 418.9,297.6 415.7,299.3 416.3,295.7 
		413.7,293.2 417.3,292.7 	"/>
	<polygon class="st1" points="354.8,384.5 356.4,387.7 360,388.3 357.4,390.8 358,394.4 354.8,392.7 351.6,394.4 352.2,390.8 
		349.6,388.3 353.2,387.7 	"/>
	<path class="st0" d="M208.1,77.1l0.6,1.2l1.4,0.2c0.2,0,0.4,0.2,0.3,0.4c0,0.1-0.1,0.2-0.1,0.2l-1,0.9l0.2,1.3
		c0,0.2-0.1,0.4-0.3,0.5c-0.1,0-0.2,0-0.2,0l-1.2-0.6l-1.2,0.6c-0.2,0.1-0.4,0-0.6-0.2c0-0.1-0.1-0.2,0-0.2l0.2-1.3l-1-0.9
		c-0.2-0.2-0.2-0.4,0-0.6c0.1-0.1,0.2-0.1,0.2-0.1l1.3-0.2l0.6-1.2c0.1-0.2,0.3-0.3,0.5-0.3C208,76.8,208.1,76.9,208.1,77.1z"/>
	<path class="st1" d="M43,368.9l0.6,1.2l1.3,0.2c0.2,0,0.4,0.2,0.4,0.5c0,0.1-0.1,0.2-0.1,0.2l-1,0.9l0.2,1.3c0,0.2-0.1,0.4-0.3,0.5
		c-0.1,0-0.2,0-0.2,0l-1.2-0.6l-1.2,0.6c-0.2,0.1-0.4,0-0.6-0.2c0-0.1-0.1-0.2,0-0.2l0.2-1.3l-1-0.9c-0.2-0.2-0.2-0.4,0-0.6
		c0.1-0.1,0.1-0.1,0.2-0.1l1.3-0.2l0.6-1.3c0.1-0.2,0.3-0.3,0.5-0.3C42.8,368.7,42.9,368.8,43,368.9z"/>
	<path class="st0" d="M70,64.2l0.6,1.2l1.3,0.2c0.2,0,0.4,0.2,0.3,0.5c0,0.1-0.1,0.2-0.1,0.2l-1,1l0.2,1.3c0,0.2-0.1,0.4-0.3,0.5
		c-0.1,0-0.2,0-0.3,0l-1.2-0.6l-1.2,0.6c-0.2,0.1-0.4,0-0.5-0.1c0-0.1-0.1-0.2,0-0.3l0.2-1.3l-1-1c-0.2-0.2-0.2-0.4,0-0.6
		c0.1-0.1,0.1-0.1,0.2-0.1l1.3-0.2l0.6-1.2c0.1-0.2,0.3-0.3,0.5-0.2C69.8,64,69.9,64.1,70,64.2z"/>
	<path class="st0" d="M68.3,305.2c0,0.7-0.6,1.3-1.3,1.3c-0.7,0-1.3-0.6-1.3-1.3c0-0.7,0.6-1.3,1.3-1.3l0,0
		C67.7,303.9,68.3,304.5,68.3,305.2z"/>
	<path class="st0" d="M257.9,138.8c0,0.7-0.6,1.3-1.3,1.3c-0.7,0-1.3-0.6-1.3-1.3s0.6-1.3,1.3-1.3l0,0
		C257.3,137.5,257.9,138.1,257.9,138.8L257.9,138.8z"/>
	<path class="st1" d="M188.9,65.3c0,0.7-0.6,1.3-1.3,1.3s-1.3-0.6-1.3-1.3c0-0.7,0.6-1.3,1.3-1.3C188.3,64,188.9,64.6,188.9,65.3z"
		/>
	<circle class="st2" cx="189.3" cy="382.3" r="7.4"/>
	<path class="st3" d="M186.8,378c-1.5,0-3,0.5-4.2,1.4c-1.6,3.7,0.1,8,3.8,9.7c2.2,0.9,4.7,0.8,6.7-0.4l0,0c1.9-3.5,0.6-7.8-2.9-9.7
		C189.2,378.3,188,378,186.8,378L186.8,378z"/>
</g>
<g id="freepik--404--inject-15">
	<path class="st4" d="M129.9,254.5H69V227l60.8-72.3h29.1v73.9H174v25.9h-15.1V277h-29.1L129.9,254.5L129.9,254.5z M129.9,228.6
		v-37.8l-32.2,37.8H129.9z"/>
	<path class="st4" d="M184.5,216.4c0-22.9,4.1-38.9,12.3-48s20.8-13.7,37.6-13.7c8.1,0,14.7,1,19.9,3c4.7,1.7,9,4.4,12.7,7.8
		c3.1,2.9,5.7,6.3,7.8,10.1c2,3.9,3.6,8.1,4.5,12.3c2.3,9.2,3.4,18.6,3.4,28c0,21.8-3.7,37.8-11.1,47.9S251.5,279,233.5,279
		c-10.1,0-18.3-1.6-24.5-4.8c-6.3-3.3-11.6-8.2-15.3-14.2c-2.9-4.4-5.2-10.5-6.8-18.2C185.2,233.4,184.4,224.9,184.5,216.4z
		 M217.6,216.5c0,15.3,1.3,25.8,4.1,31.4c2.7,5.6,6.6,8.4,11.8,8.4c3.3,0,6.5-1.2,8.8-3.6c2.5-2.4,4.3-6.1,5.5-11.3
		c1.2-5.1,1.8-13.1,1.8-24c0-16-1.4-26.7-4.1-32.2s-6.8-8.2-12.2-8.2c-5.5,0-9.5,2.8-12,8.4C218.8,191,217.6,201.4,217.6,216.5z"/>
	<path class="st4" d="M353.9,254.5h-60.8V227l60.9-72.3h29.1v73.9h15.1v25.9h-15.1V277H354L353.9,254.5L353.9,254.5z M353.9,228.6
		v-37.8l-32.1,37.8H353.9z"/>
</g>
<g id="freepik--Planets--inject-15">
	<g class="st5">
		<path class="st4" d="M183.2,112.5c0,1-0.8,1.9-1.9,1.9s-1.9-0.8-1.9-1.9c0-1,0.8-1.9,1.9-1.9l0,0
			C182.4,110.6,183.2,111.5,183.2,112.5L183.2,112.5z"/>
		<circle class="st4" cx="55.2" cy="183" r="1.3"/>
		<circle class="st4" cx="273.2" cy="375.2" r="1.9"/>
		<circle class="st4" cx="318.7" cy="298.9" r="1.3"/>
		<path class="st4" d="M406.4,62.5c0,0.7-0.6,1.3-1.3,1.3c-0.7,0-1.3-0.6-1.3-1.3c0-0.7,0.6-1.3,1.3-1.3S406.4,61.8,406.4,62.5
			L406.4,62.5z"/>
		<path class="st4" d="M155,35.9c0,0.7-0.6,1.3-1.3,1.3s-1.3-0.6-1.3-1.3c0-0.7,0.6-1.3,1.3-1.3S154.9,35.2,155,35.9z"/>
		<circle class="st4" cx="259.9" cy="103.8" r="1.3"/>
	</g>
	<circle class="st4" cx="123.4" cy="83.3" r="21.9"/>
	<circle class="st6" cx="123.4" cy="83.3" r="21.9"/>
	<path class="st7" d="M115.9,66.7c-3,0-5.9,0.6-8.7,1.8c-8.1,9-7.5,22.8,1.5,31c6.4,5.8,15.5,7.3,23.4,3.9l0,0
		c8.1-9,7.5-22.8-1.5-31C126.5,68.8,121.3,66.7,115.9,66.7L115.9,66.7z"/>
	<path class="st7" d="M113.7,72.5c0,1.1-0.9,2-2,2s-2-0.9-2-2s0.9-2,2-2S113.7,71.4,113.7,72.5z"/>
	<path class="st7" d="M137.3,70.5c0,1.1-0.9,2-2,2s-2-0.9-2-2s0.9-2,2-2S137.3,69.4,137.3,70.5z"/>
	<path class="st7" d="M133.3,84.8c0,1.8-1.5,3.3-3.3,3.3s-3.3-1.5-3.3-3.3s1.5-3.3,3.3-3.3l0,0C131.8,81.5,133.3,83,133.3,84.8z"/>
	<path class="st7" d="M122.8,94.1c0,2.4-2,4.4-4.4,4.4s-4.4-2-4.4-4.4s2-4.4,4.4-4.4S122.8,91.7,122.8,94.1L122.8,94.1z"/>
	<circle class="st4" cx="364.4" cy="343.1" r="19.2"/>
	<circle class="st8" cx="364.4" cy="343.1" r="19.2"/>
	<path class="st9" d="M376.5,328.2c-10.2-3.1-20.9,2.7-24,12.8c-2.3,7.5,0.2,15.6,6.3,20.5c1.8,0.5,3.7,0.8,5.5,0.8
		c10.6,0,19.2-8.6,19.2-19.2C383.6,337.4,381,331.9,376.5,328.2L376.5,328.2z"/>
	<path class="st4" d="M346,348.9c-20.5,9.7-5.2,17.1,23.7,6.7c26.8-9.6,37-21.8,13-18C384,342.7,350.5,355.7,346,348.9z"/>
</g>
<g id="freepik--Astronaut--inject-15">
	<path class="st10" d="M376.3,154.7c-26.9,18.2-61.7,42.2-71.3,99.8h-2c9.4-57,42.9-81.6,69.8-99.8H376.3z"/>
	<path class="st4" d="M237.2,335.2c-17,0-33.8-7.7-42-20.2c-5.1-7.7-10.9-24,6.6-45.6l1.6,1.3c-12.4,15.3-14.6,30.6-6.4,43.2
		c10,15.3,33.6,23,53.7,17.5c20.6-5.6,33.1-23.5,34.4-49.2c4.1-87.8,50.8-114.9,84.8-134.6c21.2-12.3,36.5-21.1,33.1-39.8
		c-0.5-2.6-1.5-4.4-3.2-5.5c-4.4-2.9-12.9-0.9-22.7,1.4c-19.3,4.5-45.8,10.7-61.5-16.1l1.7-1c15,25.5,39.6,19.8,59.3,15.2
		c10.3-2.4,19.2-4.5,24.2-1.1c2.1,1.4,3.5,3.6,4,6.8c3.6,20.1-13,29.7-34,41.9c-33.7,19.5-79.8,46.2-83.9,133
		c-1.3,26.6-14.3,45.2-35.8,51.1C246.6,334.6,241.9,335.2,237.2,335.2z"/>
	<path class="st11" d="M237.2,335.2c-17,0-33.8-7.7-42-20.2c-5.1-7.7-10.9-24,6.6-45.6l1.6,1.3c-12.4,15.3-14.6,30.6-6.4,43.2
		c10,15.3,33.6,23,53.7,17.5c20.6-5.6,33.1-23.5,34.4-49.2c4.1-87.8,50.8-114.9,84.8-134.6c21.2-12.3,36.5-21.1,33.1-39.8
		c-0.5-2.6-1.5-4.4-3.2-5.5c-4.4-2.9-12.9-0.9-22.7,1.4c-19.3,4.5-45.8,10.7-61.5-16.1l1.7-1c15,25.5,39.6,19.8,59.3,15.2
		c10.3-2.4,19.2-4.5,24.2-1.1c2.1,1.4,3.5,3.6,4,6.8c3.6,20.1-13,29.7-34,41.9c-33.7,19.5-79.8,46.2-83.9,133
		c-1.3,26.6-14.3,45.2-35.8,51.1C246.6,334.6,241.9,335.2,237.2,335.2z"/>
	<path class="st4" d="M295,63.9c4.6,0,9.2,0.7,13.6,2.1c0,0,11,18.8,12.3,23.1c-0.5,4.2-7.6,11.2-7.6,11.2L295,63.9z"/>
	<path class="st8" d="M295,63.9c4.6,0,9.2,0.7,13.6,2.1c0,0,11,18.8,12.3,23.1c-0.5,4.2-7.6,11.2-7.6,11.2L295,63.9z"/>
	<path class="st4" d="M327.5,155c-4.2-5.2-8.1-10.7-11.6-16.4c-0.8-1.4-1.6-2.9-2.4-4.4c-0.4-0.9-0.8-1.7-1.2-2.6
		c-0.5-0.8-0.9-1.7-1.2-2.7c-1.2-12.7,3.1-22-1-32.2l-16.5,6.4c0,0,1.4,18.1,4.6,29c2,6.7,6.5,12.6,10.8,17.9c1.4,1.7,2.6,3.4,4,5.1
		s2.7,3.1,4,4.6c2,2.4,2.6,4.7,1.1,7.6l-0.2,0.4c-0.4,0.7,1.5,1.6,2.8,0c2-2.6,1.7-2.4,3.5-4.6c1.1-1.3,2.3-2.8,3.3-4
		C328.5,158.1,328.6,156.3,327.5,155z"/>
	<path class="st6" d="M327.5,155c-4.2-5.2-8.1-10.7-11.6-16.4c-0.8-1.4-1.6-2.9-2.4-4.4c-0.4-0.9-0.8-1.7-1.2-2.6
		c-0.5-0.8-0.9-1.7-1.2-2.7c-1.2-12.7,3.1-22-1-32.2l-16.5,6.4c0,0,1.4,18.1,4.6,29c2,6.7,6.5,12.6,10.8,17.9c1.4,1.7,2.6,3.4,4,5.1
		s2.7,3.1,4,4.6c2,2.4,2.6,4.7,1.1,7.6l-0.2,0.4c-0.4,0.7,1.5,1.6,2.8,0c2-2.6,1.7-2.4,3.5-4.6c1.1-1.3,2.3-2.8,3.3-4
		C328.5,158.1,328.6,156.3,327.5,155z"/>
	<path class="st12" d="M323.5,149.8c-2.6,2.8-5.5,5.3-8.7,7.5c0.4,0.5,0.9,1,1.3,1.5c3.1-2.1,6-4.6,8.5-7.5L323.5,149.8z"/>
	<path class="st12" d="M327.5,155l-0.1-0.1c-0.8,0.9-1.2,2-1.3,3.2c-0.1,0.8,0.1,1.6,0.4,2.4l1-1.1
		C328.5,158.1,328.5,156.3,327.5,155z"/>
	<path class="st4" d="M291,75.9c-1.8,2.7-3.9,5.1-6.4,7.2c-1.4,1.2-2.8,2.2-4.4,3c-0.8,0.4-1.7,0.8-2.6,1.1l-0.7,0.2l-0.2,0.1
		l-0.5,0.1c-0.3,0.1-0.6,0.1-0.9,0.1c-0.8,0.1-1.7,0-2.5-0.2c-1-0.3-2-0.7-2.9-1.3c-0.7-0.4-1.5-0.9-2.1-1.4c-1.3-0.9-2.4-1.9-3.6-3
		c-2.2-2.1-4.2-4.3-6-6.7c-0.8-1.1-0.6-2.7,0.5-3.5c0.8-0.6,2-0.7,2.8-0.1h0.1c2.4,1.5,4.7,3.1,7.1,4.5c1.2,0.7,2.3,1.4,3.5,1.9
		c0.5,0.3,1,0.5,1.6,0.7c0.3,0.1,0.7,0.2,1.1,0.3c0.1,0,0-0.1-0.4-0.1c-0.1,0-0.2,0-0.4,0l-0.2,0.1l0,0l0.3-0.2
		c0.4-0.2,0.9-0.5,1.3-0.8c0.9-0.6,1.7-1.3,2.5-2.1c1.7-1.8,3.4-3.8,4.9-5.8l0,0c1.8-2.1,5-2.2,7.1-0.4c1.8,1.6,2.2,4.3,0.9,6.3
		L291,75.9z"/>
	<path class="st6" d="M291,75.9c-1.8,2.7-3.9,5.1-6.4,7.2c-1.4,1.2-2.8,2.2-4.4,3c-0.8,0.4-1.7,0.8-2.6,1.1l-0.7,0.2l-0.2,0.1
		l-0.5,0.1c-0.3,0.1-0.6,0.1-0.9,0.1c-0.8,0.1-1.7,0-2.5-0.2c-1-0.3-2-0.7-2.9-1.3c-0.7-0.4-1.5-0.9-2.1-1.4c-1.3-0.9-2.4-1.9-3.6-3
		c-2.2-2.1-4.2-4.3-6-6.7c-0.8-1.1-0.6-2.7,0.5-3.5c0.8-0.6,2-0.7,2.8-0.1h0.1c2.4,1.5,4.7,3.1,7.1,4.5c1.2,0.7,2.3,1.4,3.5,1.9
		c0.5,0.3,1,0.5,1.6,0.7c0.3,0.1,0.7,0.2,1.1,0.3c0.1,0,0-0.1-0.4-0.1c-0.1,0-0.2,0-0.4,0l-0.2,0.1l0,0l0.3-0.2
		c0.4-0.2,0.9-0.5,1.3-0.8c0.9-0.6,1.7-1.3,2.5-2.1c1.7-1.8,3.4-3.8,4.9-5.8l0,0c1.8-2.1,5-2.2,7.1-0.4c1.8,1.6,2.2,4.3,0.9,6.3
		L291,75.9z"/>
	<path class="st4" d="M254.5,69.3l1.2,2c0,0,0.9,2.6,2.7,3.1l4.9-1.6l-0.2-0.4l0,0c-0.6-0.9-0.5-2.8-0.3-4.3s-0.6-1.6-1.1-1.2
		c-0.4,0.5-0.7,1-0.8,1.7c-0.2-0.3-0.5-0.6-0.8-0.9l-1.5-1.5c-0.6-0.6-1.7-0.7-2.3-0.1l-1.2,1.1C254.2,67.8,254.1,68.6,254.5,69.3z"
		/>
	<path class="st6" d="M254.5,69.3l1.2,2c0,0,0.9,2.6,2.7,3.1l4.9-1.6l-0.2-0.4l0,0c-0.6-0.9-0.5-2.8-0.3-4.3s-0.6-1.6-1.1-1.2
		c-0.4,0.5-0.7,1-0.8,1.7c-0.2-0.3-0.5-0.6-0.8-0.9l-1.5-1.5c-0.6-0.6-1.7-0.7-2.3-0.1l-1.2,1.1C254.2,67.8,254.1,68.6,254.5,69.3z"
		/>
	<path class="st4" d="M299.9,62.1c-5.4,1.4-10.6,3.6-15.3,6.5c-1.5,1-2.3,2.8-1.9,4.5c1.9,9.4,6.3,22.1,11.1,30.1l22.1-9.2
		c0.1-3.9-5.2-16.5-10.7-28.7C304.1,63.2,302.2,61.6,299.9,62.1z"/>
	<path class="st13" d="M299.9,62.1c-5.4,1.4-10.6,3.6-15.3,6.5c-1.5,1-2.3,2.8-1.9,4.5c1.9,9.4,6.3,22.1,11.1,30.1l22.1-9.2
		c0.1-3.9-5.2-16.5-10.7-28.7C304.1,63.2,302.2,61.6,299.9,62.1z"/>
	<path class="st12" d="M308.5,73.1l-4.4-1.5c1,2.6,4.5,5.8,7,7.7C310.3,77.4,309.4,75.3,308.5,73.1z"/>
	<path class="st4" d="M298.4,52.2c-1.8-3.5-5.8-5.2-10.5-4.8c-4,0.3-7.5,4.4-7.1,6.6s3.8,3.1,4.4,3.9l-2.8,2c-1.3,1-1.6,2.8-0.7,4.2
		l0.1,0.1c1.2,1.5,2.7,3,3.6,4.1c7.7-0.2,13.3-3.1,15.4-5.9C300,58.8,300.2,55.7,298.4,52.2z"/>
	<path class="st13" d="M298.4,52.2c-1.8-3.5-5.8-5.2-10.5-4.8c-4,0.3-7.5,4.4-7.1,6.6s3.8,3.1,4.4,3.9l-2.8,2
		c-1.3,1-1.6,2.8-0.7,4.2l0.1,0.1c1.2,1.5,2.7,3,3.6,4.1c7.7-0.2,13.3-3.1,15.4-5.9C300,58.8,300.2,55.7,298.4,52.2z"/>
	<path class="st14" d="M294.7,54.4c1.5,3.9-0.4,8.3-4.3,9.8s-8.3-0.4-9.8-4.3s0.4-8.3,4.3-9.8C288.7,48.6,293.1,50.5,294.7,54.4z"/>
	<path class="st4" d="M359.6,144.5c-0.1-3.3-0.3-3-0.4-5.8c-0.1-1.7-0.1-3.6-0.1-5.2c0-1.6-1.1-3-2.7-3.3c-1.3-0.3-2.6-0.5-4-0.8
		c-1.7-0.4-3.4-0.8-5.1-1.3c-1.3-0.4-2.6-0.8-3.9-1.3s-2.7-1-4.1-1.6c-1.6-0.7-3.1-1.4-4.7-2.1c-1.7-0.8-3.4-1.7-5.1-2.6
		c-6.6-10.9-6.7-18.1-13.8-26.5l-15.2,6.9c0,0,11.1,19.8,18.7,28.1c4.4,4.8,11.2,7,17.3,8.6c4.4,1.1,8.9,2,13.4,2.8
		c1.7,0.3,3.6,0.4,5.1,1.5c1.1,0.9,1.9,2.1,2.1,3.4c0.1,0.3,0.1,0.6,0.2,0.8C357.6,147.1,359.7,146.5,359.6,144.5z"/>
	<path class="st13" d="M359.6,144.5c-0.1-3.3-0.3-3-0.4-5.8c-0.1-1.7-0.1-3.6-0.1-5.2c0-1.6-1.1-3-2.7-3.3c-1.3-0.3-2.6-0.5-4-0.8
		c-1.7-0.4-3.4-0.8-5.1-1.3c-1.3-0.4-2.6-0.8-3.9-1.3s-2.7-1-4.1-1.6c-1.6-0.7-3.1-1.4-4.7-2.1c-1.7-0.8-3.4-1.7-5.1-2.6
		c-6.6-10.9-6.7-18.1-13.8-26.5l-15.2,6.9c0,0,11.1,19.8,18.7,28.1c4.4,4.8,11.2,7,17.3,8.6c4.4,1.1,8.9,2,13.4,2.8
		c1.7,0.3,3.6,0.4,5.1,1.5c1.1,0.9,1.9,2.1,2.1,3.4c0.1,0.3,0.1,0.6,0.2,0.8C357.6,147.1,359.7,146.5,359.6,144.5z"/>
	<path class="st12" d="M351.9,129.3c-0.6-0.1-1.2-0.3-1.8-0.4c0,3.5-1.6,9.4-2.2,11.2l1.9,0.4C351.1,136.9,351.8,133.1,351.9,129.3z
		"/>
	<path class="st12" d="M359.2,133.5c0-1.6-1.1-3-2.7-3.3l-1-0.2c0.2,1.1,0.7,2.2,1.6,2.9c0.6,0.5,1.3,0.9,2,1.1
		C359.2,133.9,359.2,133.7,359.2,133.5z"/>
	<path class="st15" d="M293.2,54.4c0.4,1.5-1.3,3.1-2.6,1.8c-1.3-1.4-2.6-2.6-4.1-3.7c-1.4-0.9,0.5-2.4,2.6-1.8
		C291,51.2,292.6,52.6,293.2,54.4z"/>
	<path class="st4" d="M293.4,102.8c-0.7,0.3,0.6,1.5,0.6,1.5s14-4.8,22.5-9.7c0-0.6-0.2-1.2-0.7-1.6
		C308.5,96.6,301,99.9,293.4,102.8z"/>
	<path class="st16" d="M293.4,102.8c-0.7,0.3,0.6,1.5,0.6,1.5s14-4.8,22.5-9.7c0-0.6-0.2-1.2-0.7-1.6
		C308.5,96.6,301,99.9,293.4,102.8z"/>
	<path class="st4" d="M303.7,61.5c2.8,1.4,5.4,2.9,8,4.5c1.3,0.8,2.6,1.7,3.8,2.6s2.5,1.8,3.8,2.9l0.5,0.4l0.6,0.5
		c0.4,0.3,0.7,0.6,1,1c0.3,0.3,0.6,0.7,0.9,1s0.5,0.7,0.8,1c0.9,1.3,1.8,2.6,2.6,4c1.5,2.7,2.9,5.5,4,8.3c0.5,1.3-0.2,2.8-1.5,3.2
		c-1,0.4-2,0.1-2.7-0.6v-0.1c-2-2.1-3.9-4.4-5.9-6.5s-3.9-4.2-5.5-5.1c-2.3-1.4-4.8-2.8-7.3-4.2l-7.6-4.2l0,0
		c-2.4-1.3-3.4-4.3-2.1-6.8C298.3,61,301.3,60.1,303.7,61.5L303.7,61.5z"/>
	<path class="st13" d="M303.7,61.5c2.8,1.4,5.4,2.9,8,4.5c1.3,0.8,2.6,1.7,3.8,2.6s2.5,1.8,3.8,2.9l0.5,0.4l0.6,0.5
		c0.4,0.3,0.7,0.6,1,1c0.3,0.3,0.6,0.7,0.9,1s0.5,0.7,0.8,1c0.9,1.3,1.8,2.6,2.6,4c1.5,2.7,2.9,5.5,4,8.3c0.5,1.3-0.2,2.8-1.5,3.2
		c-1,0.4-2,0.1-2.7-0.6v-0.1c-2-2.1-3.9-4.4-5.9-6.5s-3.9-4.2-5.5-5.1c-2.3-1.4-4.8-2.8-7.3-4.2l-7.6-4.2l0,0
		c-2.4-1.3-3.4-4.3-2.1-6.8C298.3,61,301.3,60.1,303.7,61.5L303.7,61.5z"/>
	<path class="st4" d="M331.9,92.6l-0.9-2.1c0,0-0.5-2.7-2.2-3.5l-5,0.8l0.2,0.4l0,0c0.5,1,0.1,2.8-0.3,4.3s0.3,1.7,1,1.4
		c0.4-0.2,0.7-0.8,1.1-1.5c0.2,0.3,0.4,0.7,0.6,1l1.2,1.7c0.5,0.7,1.5,0.9,2.3,0.4l1.4-0.9C332,94.2,332.2,93.4,331.9,92.6z"/>
	<path class="st13" d="M331.9,92.6l-0.9-2.1c0,0-0.5-2.7-2.2-3.5l-5,0.8l0.2,0.4l0,0c0.5,1,0.1,2.8-0.3,4.3s0.3,1.7,1,1.4
		c0.4-0.2,0.7-0.8,1.1-1.5c0.2,0.3,0.4,0.7,0.6,1l1.2,1.7c0.5,0.7,1.5,0.9,2.3,0.4l1.4-0.9C332,94.2,332.2,93.4,331.9,92.6z"/>
	<path class="st12" d="M299.4,73l-1.2,0.1l-7.5,18.1c0.4,0,0.8,0,1.2-0.1c0,0,9.8-3.6,12.7-5C302.7,82,299.4,73,299.4,73z"/>
	<path class="st15" d="M285.8,77.7c0.9,4.7,2.6,9.3,5,13.4c3.7-1.3,9.8-3.6,12.7-5c-2-4.3-3.8-8.6-5.3-13.1
		C295.1,73.3,288.2,75.9,285.8,77.7z"/>
	<path class="st12" d="M293.2,81.6c-0.4,1.4-1.8,2.1-3.2,1.7c-1.4-0.4-2.1-1.8-1.7-3.2s1.8-2.1,3.2-1.7l0,0
		C292.8,78.8,293.6,80.2,293.2,81.6z"/>
	<path class="st17" d="M295.1,78.2c-0.1,0.5-0.6,0.7-1,0.6c-0.5-0.1-0.7-0.6-0.6-1c0.1-0.5,0.6-0.7,1-0.6c0,0,0,0,0.1,0
		C295,77.3,295.2,77.7,295.1,78.2z"/>
	<path class="st17" d="M297.3,77.3c-0.1,0.5-0.5,0.8-1,0.7c-0.5-0.1-0.8-0.5-0.7-1c0-0.1,0-0.1,0-0.2c0.1-0.4,0.6-0.7,1-0.6l0,0
		C297.2,76.4,297.5,76.9,297.3,77.3z"/>
	<polygon class="st18" points="300.5,85.1 291.2,88.7 290.7,86.9 299.9,83.3 	"/>
</g>
<g id="freepik--Rocket--inject-15">
	<path class="st10" d="M249.5,224.1c0,5.8-0.6,11.6-1.7,17.4c-1.2,5.1-3,8.9-5.5,11.3c-2.3,2.3-5.5,3.6-8.8,3.6
		c-5.1,0-9.1-2.8-11.8-8.4c-0.5-1-0.9-2-1.2-3.1c-5.7,4.9-11,10.3-15.9,16l-5.3,6.3c2.9,2.9,6.2,5.3,9.8,7.2
		c6.2,3.2,14.4,4.8,24.5,4.8c1.8,0,3.5,0,5.2-0.1c6.1-9.1,11.2-18.8,15.1-29l14.9-38.7L249.5,224.1z"/>
	<path class="st14" d="M115.6,276.9l17.5,17.5l49-46.2C165.2,241.8,132.4,260.1,115.6,276.9z"/>
	<path class="st14" d="M176.6,337.9c-5.6-5.6-17.5-17.5-17.5-17.5l46.2-49C211.7,288.3,193.4,321.1,176.6,337.9z"/>
	<path class="st4" d="M243.6,227.6l19.1-36.8l-36.8,19.1c-11.8,6.1-22.7,13.9-32.4,23L130.7,292l30.8,30.8l59.1-62.8
		C229.7,250.3,237.5,239.4,243.6,227.6z"/>
	<path class="st19" d="M243.6,227.6l19.1-36.8l-36.8,19.1c-11.8,6.1-22.7,13.9-32.4,23L130.7,292l30.8,30.8l59.1-62.8
		C229.7,250.3,237.5,239.4,243.6,227.6z"/>
	<circle class="st15" cx="204.4" cy="249.1" r="12.9"/>
	<circle class="st4" cx="204.4" cy="249.1" r="8.3"/>
	<polygon class="st12" points="172,311.7 141.8,281.5 166.5,258.3 195.2,287 	"/>
	<path class="st4" d="M122.4,304.5c-22.6,1.8-30.1,16.3-32.7,35.5c-1.3,9.8-1.9,19.7-10.1,25.5c-1.3,0.9-1.6,2.6-0.7,3.8
		c0.5,0.8,1.4,1.2,2.4,1.2c30.3-1,44.5-15.8,46.3-22c-0.5,3.2-1.3,6.4-2.5,9.5c-0.6,1.4,0.1,3,1.5,3.6c0.8,0.3,1.7,0.3,2.5-0.2
		c8.5-5.3,19.2-15.1,19.9-31.1C142.7,321.5,122.4,304.5,122.4,304.5z"/>
	<path class="st11" d="M122.4,304.5c-22.6,1.8-30.1,16.3-32.7,35.5c-1.3,9.8-1.9,19.7-10.1,25.5c-1.3,0.9-1.6,2.6-0.7,3.8
		c0.5,0.8,1.4,1.2,2.4,1.2c30.3-1,44.5-15.8,46.3-22c-0.5,3.2-1.3,6.4-2.5,9.5c-0.6,1.4,0.1,3,1.5,3.6c0.8,0.3,1.7,0.3,2.5-0.2
		c8.5-5.3,19.2-15.1,19.9-31.1C142.7,321.5,122.4,304.5,122.4,304.5z"/>
	<polygon class="st4" points="152.5,337.2 116.3,301 135.6,296.8 156.6,317.9 	"/>
</g>
</svg>
