<svg xmlns="http://www.w3.org/2000/svg" viewBox="0 0 169.61 127.25"><defs><style>.cls-1{fill:#98a8dc;}</style></defs><g id="Layer_2" data-name="Layer 2"><g id="Layer_1-2" data-name="Layer 1"><path class="cls-1" d="M0,55c.72-2,.73-4.18,1.12-6.27,1-5.44,3.64-10.25,5.71-15.28,3.64-8.87,7.43-17.68,11.1-26.54A10.9,10.9,0,0,1,27.94,0H44.67c4,0,6.24,2.88,5.46,6.82Q46.29,26.42,42.48,46c-.25,1.29.05,1.74,1.45,1.73,6.35-.07,12.7,0,19,0,9.61,0,16.52,6.88,16.52,16.44q0,23.19,0,46.37c0,9.84-6.81,16.68-16.61,16.68-15.46,0-30.92-.1-46.37,0-8.22.08-15.35-6-16.27-13.54,0-.15-.16-.28-.25-.42Z"/><path class="cls-1" d="M90.1,84.68c0-7.23.16-14.46,0-21.69a60.23,60.23,0,0,1,5.68-27.05c4.37-9.57,8.25-19.36,12.3-29.08a10.9,10.9,0,0,1,10-6.85c5.58,0,11.15,0,16.73,0,3.87,0,6.2,2.94,5.45,6.71q-3.86,19.67-7.69,39.35c-.23,1.14,0,1.68,1.34,1.67,6.35-.07,12.7,0,19.05,0,9.81,0,16.63,6.84,16.64,16.67v46.2c0,9.8-6.85,16.62-16.68,16.62H106.22a15.82,15.82,0,0,1-15.54-11.78,16.33,16.33,0,0,1-.58-4.57Q90.12,97.77,90.1,84.68Z"/></g></g></svg>