<svg xmlns="http://www.w3.org/2000/svg" viewBox="0 0 860.23 140.06"><defs><style>.cls-1{font-size:128.63px;font-family:LeelawadeeUI-Bold, Leelawadee UI;font-weight:700;}.cls-1,.cls-2{fill:#98a8dc;}</style></defs><g id="Layer_2" data-name="Layer 2"><g id="Layer_1-2" data-name="Layer 1"><text class="cls-1" transform="translate(181.07 109.35)">Quoting</text><path class="cls-2" d="M0,57.28A38.24,38.24,0,0,1,38.25,19H40.8a10.2,10.2,0,1,1,0,20.4H38.25A17.86,17.86,0,0,0,20.4,57.28v2.55H40.8a20.42,20.42,0,0,1,20.4,20.4v20.4A20.42,20.42,0,0,1,40.8,121H20.4A20.42,20.42,0,0,1,0,100.63V57.28Zm81.6,0A38.24,38.24,0,0,1,119.85,19h2.55a10.2,10.2,0,0,1,0,20.4h-2.55A17.86,17.86,0,0,0,102,57.28v2.55h20.4a20.42,20.42,0,0,1,20.4,20.4v20.4A20.42,20.42,0,0,1,122.4,121H102a20.42,20.42,0,0,1-20.4-20.4V57.28Z"/><path class="cls-2" d="M860.23,82.78A38.24,38.24,0,0,1,822,121h-2.55a10.2,10.2,0,1,1,0-20.4H822a17.87,17.87,0,0,0,17.85-17.85V80.23h-20.4A20.41,20.41,0,0,1,799,59.83V39.43A20.41,20.41,0,0,1,819.43,19h20.4a20.42,20.42,0,0,1,20.4,20.4V82.78Zm-81.6,0A38.24,38.24,0,0,1,740.38,121h-2.55a10.2,10.2,0,0,1,0-20.4h2.55a17.87,17.87,0,0,0,17.85-17.85V80.23h-20.4a20.41,20.41,0,0,1-20.4-20.4V39.43A20.41,20.41,0,0,1,737.83,19h20.4a20.42,20.42,0,0,1,20.4,20.4V82.78Z"/></g></g></svg>